<svg width="55" height="55" viewBox="0 0 55 55" fill="none" xmlns="http://www.w3.org/2000/svg">
<circle cx="27.5" cy="27.5" r="27.5" fill="#744D31"/>
<path d="M37.5625 18C38.9082 18 40 19.1198 40 20.5C40 21.2865 39.6395 22.026 39.025 22.5L27.975 31C27.3961 31.4427 26.6039 31.4427 26.025 31L14.975 22.5C14.3605 22.026 14 21.2865 14 20.5C14 19.1198 15.0918 18 16.4375 18H37.5625ZM40 23.8333V34.6667C40 36.5052 38.5426 38 36.75 38H17.25C15.4574 38 14 36.5052 14 34.6667V23.8333L25.05 32.3333C26.2078 33.224 27.7922 33.224 28.95 32.3333L40 23.8333Z" fill="#EFE8E3"/>
</svg>
