<svg width="55" height="55" viewBox="0 0 55 55" fill="none" xmlns="http://www.w3.org/2000/svg">
<circle cx="27.5" cy="27.5" r="27.5" fill="#744D31"/>
<path d="M28.1109 39.4382C30.5156 36.2953 36 28.678 36 24.3993C36 19.2101 31.9688 15 27 15C22.0312 15 18 19.2101 18 24.3993C18 28.678 23.4844 36.2953 25.8891 39.4382C26.4656 40.1873 27.5344 40.1873 28.1109 39.4382ZM27 21.2662C27.7956 21.2662 28.5587 21.5963 29.1213 22.1839C29.6839 22.7715 30 23.5684 30 24.3993C30 25.2303 29.6839 26.0272 29.1213 26.6148C28.5587 27.2023 27.7956 27.5324 27 27.5324C26.2044 27.5324 25.4413 27.2023 24.8787 26.6148C24.3161 26.0272 24 25.2303 24 24.3993C24 23.5684 24.3161 22.7715 24.8787 22.1839C25.4413 21.5963 26.2044 21.2662 27 21.2662Z" fill="#EFE8E3"/>
</svg>
