<svg width="55" height="55" viewBox="0 0 55 55" fill="none" xmlns="http://www.w3.org/2000/svg">
<circle cx="27.5" cy="27.5" r="27.5" fill="#744D31"/>
<path d="M22.3735 16.2503C21.9825 15.3058 20.9516 14.8031 19.9665 15.0722L15.498 16.2909C14.6144 16.5347 14 17.337 14 18.251C14 30.8137 24.1863 41 36.749 41C37.663 41 38.4653 40.3856 38.7091 39.502L39.9278 35.0335C40.1969 34.0484 39.6942 33.0175 38.7497 32.6265L33.8749 30.5954C33.0472 30.2501 32.0875 30.4887 31.5238 31.1844L29.4724 33.6878C25.8975 31.9969 23.0031 29.1025 21.3122 25.5276L23.8156 23.4812C24.5113 22.9125 24.7499 21.9579 24.4046 21.1302L22.3735 16.2554V16.2503Z" fill="#EFE8E3"/>
</svg>
